<?xml version="1.0" encoding="UTF-8" standalone="no"?>
<svg xmlns="http://www.w3.org/2000/svg" width="128" height="128" viewBox="0 0 1024 1024" version="1.1">
  <rect width="100%" height="100%" fill="white"/>
  <path d="M 219.00 878.50 L 213.00 878.50 L 208.00 877.50 L 202.00 877.50 L 196.00 877.50 L 191.00 876.50 L 185.00 876.50 L 180.00 875.50 L 174.00 875.50 L 169.00 874.50 L 164.00 873.50 L 159.00 872.50 L 154.00 871.50 L 148.50 871.00 L 152.00 868.50 L 156.00 866.50 L 160.00 864.50 L 164.00 862.50 L 167.50 860.00 L 171.00 857.50 L 174.50 855.00 L 178.00 852.50 L 181.50 850.00 L 185.00 847.50 L 188.00 844.50 L 191.00 841.50 L 194.00 838.50 L 197.00 835.50 L 200.00 832.50 L 203.00 829.50 L 205.50 826.00 L 208.50 823.00 L 211.00 819.50 L 213.50 816.00 L 216.00 812.50 L 218.50 809.00 L 221.00 805.50 L 223.00 801.50 L 225.50 798.00 L 227.50 794.00 L 229.50 790.00 L 231.50 786.00 L 233.50 782.00 L 235.00 777.50 L 236.50 773.00 L 238.50 769.00 L 240.50 765.00 L 241.50 760.00 L 243.50 756.00 L 245.00 751.50 L 246.50 747.00 L 247.50 742.00 L 249.50 738.00 L 250.50 733.00 L 252.00 728.50 L 253.50 724.00 L 254.50 719.00 L 255.50 714.00 L 257.50 710.00 L 258.50 705.00 L 259.50 700.00 L 261.00 695.50 L 262.50 691.00 L 263.50 686.00 L 264.50 681.00 L 266.50 677.00 L 267.50 672.00 L 268.50 667.00 L 270.00 662.50 L 271.50 658.00 L 272.50 653.00 L 273.50 648.00 L 275.50 644.00 L 276.50 639.00 L 277.50 634.00 L 279.00 629.50 L 280.50 625.00 L 281.50 620.00 L 283.00 615.50 L 284.50 611.00 L 285.50 606.00 L 287.00 601.50 L 288.50 597.00 L 289.50 592.00 L 290.50 587.00 L 292.00 582.50 L 293.50 578.00 L 294.50 573.00 L 295.50 568.00 L 297.50 564.00 L 298.50 559.00 L 299.50 554.00 L 300.50 549.00 L 302.00 544.50 L 303.50 540.00 L 304.50 535.00 L 305.50 530.00 L 306.50 525.00 L 307.50 520.00 L 309.00 515.50 L 310.50 511.00 L 307.00 508.50 L 302.00 509.50 L 296.00 509.50 L 290.00 509.50 L 285.00 510.50 L 279.00 510.50 L 273.50 511.00 L 268.00 511.50 L 263.00 512.50 L 257.00 512.50 L 252.00 513.50 L 247.00 514.50 L 242.00 515.50 L 237.00 516.50 L 232.00 517.50 L 228.00 519.50 L 223.00 520.50 L 219.00 522.50 L 215.00 524.50 L 211.00 526.50 L 207.00 528.50 L 203.00 530.50 L 199.00 532.50 L 195.50 535.00 L 192.00 537.50 L 188.50 540.00 L 185.50 543.00 L 182.00 545.50 L 179.00 548.50 L 176.00 551.50 L 173.50 552.00 L 175.00 547.50 L 176.50 543.00 L 177.50 538.00 L 178.50 533.00 L 180.50 529.00 L 181.50 524.00 L 183.50 520.00 L 185.00 515.50 L 187.00 511.50 L 189.00 507.50 L 191.00 503.50 L 193.00 499.50 L 195.50 496.00 L 198.00 492.50 L 200.50 489.00 L 203.00 485.50 L 206.00 482.50 L 209.00 479.50 L 212.00 476.50 L 215.00 473.50 L 218.00 470.50 L 221.50 468.00 L 225.00 465.50 L 228.50 463.00 L 232.00 460.50 L 236.00 458.50 L 240.00 456.50 L 244.00 454.50 L 248.00 452.50 L 252.00 450.50 L 256.00 448.50 L 261.00 447.50 L 265.00 445.50 L 270.00 444.50 L 275.00 443.50 L 280.00 442.50 L 285.00 441.50 L 290.00 440.50 L 295.00 439.50 L 300.00 438.50 L 306.00 438.50 L 311.00 437.50 L 317.00 437.50 L 322.50 437.00 L 328.00 436.50 L 329.50 432.00 L 331.00 427.50 L 332.50 423.00 L 333.50 418.00 L 334.50 413.00 L 336.00 408.50 L 337.50 404.00 L 338.50 399.00 L 339.50 394.00 L 341.00 389.50 L 342.50 385.00 L 343.50 380.00 L 344.50 375.00 L 346.00 370.50 L 347.50 366.00 L 348.50 361.00 L 349.50 356.00 L 351.00 351.50 L 352.50 347.00 L 353.50 342.00 L 355.00 337.50 L 356.50 333.00 L 358.00 328.50 L 359.50 324.00 L 361.00 319.50 L 362.50 315.00 L 364.50 311.00 L 365.50 306.00 L 367.50 302.00 L 369.50 298.00 L 371.50 294.00 L 373.00 289.50 L 375.00 285.50 L 377.00 281.50 L 379.00 277.50 L 381.50 274.00 L 383.50 270.00 L 386.00 266.50 L 388.00 262.50 L 390.50 259.00 L 393.00 255.50 L 395.50 252.00 L 398.50 249.00 L 401.00 245.50 L 403.50 242.00 L 406.50 239.00 L 409.50 236.00 L 412.50 233.00 L 415.50 230.00 L 418.50 227.00 L 421.50 224.00 L 424.50 221.00 L 428.00 218.50 L 431.00 215.50 L 434.50 213.00 L 438.00 210.50 L 441.50 208.00 L 445.00 205.50 L 448.50 203.00 L 452.00 200.50 L 456.00 198.50 L 460.00 196.50 L 463.50 194.00 L 467.50 192.00 L 471.00 189.50 L 475.00 187.50 L 479.00 185.50 L 483.50 184.00 L 487.50 182.00 L 492.00 180.50 L 496.00 178.50 L 500.00 176.50 L 505.00 175.50 L 509.00 173.50 L 513.50 172.00 L 518.00 170.50 L 522.50 169.00 L 527.00 167.50 L 532.00 166.50 L 536.50 165.00 L 541.00 163.50 L 546.00 162.50 L 551.00 161.50 L 556.00 160.50 L 561.00 159.50 L 566.00 158.50 L 571.00 157.50 L 576.00 156.50 L 581.00 155.50 L 586.00 154.50 L 591.50 154.00 L 597.00 153.50 L 602.00 152.50 L 608.00 152.50 L 613.00 151.50 L 619.00 151.50 L 624.00 150.50 L 630.00 150.50 L 636.00 150.50 L 641.00 149.50 L 647.00 149.50 L 653.00 149.50 L 659.00 149.50 L 665.00 149.50 L 670.00 148.50 L 675.00 149.50 L 679.00 149.50 L 685.00 149.50 L 691.00 149.50 L 697.00 149.50 L 703.00 149.50 L 708.50 150.00 L 714.00 150.50 L 720.00 150.50 L 725.00 151.50 L 731.00 151.50 L 736.00 152.50 L 741.00 153.50 L 746.50 154.00 L 752.00 154.50 L 757.00 155.50 L 762.00 156.50 L 767.00 157.50 L 772.00 158.50 L 776.50 160.00 L 781.00 161.50 L 786.00 162.50 L 791.00 163.50 L 795.00 165.50 L 800.00 166.50 L 804.00 168.50 L 808.50 170.00 L 812.50 172.00 L 817.00 173.50 L 821.00 175.50 L 825.00 177.50 L 829.00 179.50 L 832.50 182.00 L 836.00 184.50 L 840.00 186.50 L 843.50 189.00 L 847.00 191.50 L 850.50 194.00 L 853.50 197.00 L 857.00 199.50 L 860.00 202.50 L 863.00 205.50 L 866.00 208.50 L 869.00 211.50 L 871.50 215.00 L 874.50 218.00 L 877.00 221.50 L 879.50 225.00 L 882.00 228.50 L 884.00 232.50 L 886.50 236.00 L 888.50 240.00 L 890.50 244.00 L 892.50 248.00 L 894.00 252.50 L 895.50 257.00 L 897.00 261.50 L 898.50 266.00 L 899.50 271.00 L 901.00 275.50 L 902.00 280.50 L 902.50 286.00 L 903.50 291.00 L 904.50 296.00 L 904.50 302.00 L 905.50 307.00 L 905.50 313.00 L 905.50 319.00 L 905.50 325.00 L 905.50 331.00 L 904.50 336.00 L 904.50 342.00 L 903.50 347.00 L 902.50 352.00 L 901.50 357.00 L 901.00 362.50 L 899.50 367.00 L 898.50 372.00 L 897.50 377.00 L 895.50 381.00 L 894.50 386.00 L 892.50 390.00 L 891.00 394.50 L 889.50 399.00 L 887.50 403.00 L 885.50 407.00 L 883.50 411.00 L 881.50 415.00 L 879.50 419.00 L 877.00 422.50 L 875.00 426.50 L 872.50 430.00 L 870.00 433.50 L 867.50 437.00 L 865.00 440.50 L 862.50 444.00 L 860.00 447.50 L 857.00 450.50 L 854.50 454.00 L 851.50 457.00 L 849.00 460.50 L 846.00 463.50 L 843.00 466.50 L 840.00 469.50 L 837.00 472.50 L 834.00 475.50 L 830.50 478.00 L 827.50 481.00 L 824.00 483.50 L 821.00 486.50 L 817.00 488.50 L 814.00 491.50 L 810.00 493.50 L 806.50 496.00 L 803.00 498.50 L 799.00 500.50 L 795.50 503.00 L 792.00 505.50 L 788.00 507.50 L 784.00 509.50 L 780.00 511.50 L 776.00 513.50 L 772.00 515.50 L 768.00 517.50 L 763.50 519.00 L 759.00 520.50 L 755.00 522.50 L 750.50 524.00 L 746.00 525.50 L 741.50 527.00 L 737.00 528.50 L 732.00 529.50 L 727.50 531.00 L 723.00 532.50 L 718.00 533.50 L 713.00 534.50 L 708.00 535.50 L 703.00 536.50 L 698.00 537.50 L 692.50 538.00 L 687.00 538.50 L 682.00 539.50 L 677.00 540.50 L 671.00 540.50 L 666.00 541.50 L 660.00 541.50 L 655.00 542.50 L 649.00 542.50 L 643.00 542.50 L 637.00 542.50 L 631.00 542.50 L 625.00 542.50 L 619.00 542.50 L 613.00 542.50 L 610.00 540.50 L 614.00 538.50 L 618.00 536.50 L 622.00 534.50 L 625.50 532.00 L 629.50 530.00 L 633.00 527.50 L 637.00 525.50 L 641.00 523.50 L 644.50 521.00 L 648.50 519.00 L 652.00 516.50 L 656.00 514.50 L 660.00 512.50 L 663.50 510.00 L 667.50 508.00 L 671.00 505.50 L 675.00 503.50 L 679.00 501.50 L 682.50 499.00 L 686.00 496.50 L 690.00 494.50 L 694.00 492.50 L 697.50 490.00 L 701.00 487.50 L 704.00 484.50 L 706.50 481.00 L 708.50 477.00 L 709.50 472.00 L 708.50 467.00 L 707.00 462.50 L 704.50 459.00 L 701.50 456.00 L 698.00 453.50 L 694.50 451.00 L 691.00 448.50 L 687.50 446.00 L 691.00 443.50 L 695.50 442.00 L 700.00 440.50 L 704.00 438.50 L 707.50 436.00 L 711.50 434.00 L 715.00 431.50 L 719.00 429.50 L 722.50 427.00 L 726.00 424.50 L 729.50 422.00 L 732.50 419.00 L 735.50 416.00 L 738.50 413.00 L 741.50 410.00 L 744.50 407.00 L 747.00 403.50 L 749.50 400.00 L 752.00 396.50 L 754.50 393.00 L 756.50 389.00 L 759.00 385.50 L 761.00 381.50 L 762.50 377.00 L 764.50 373.00 L 766.50 369.00 L 767.50 364.00 L 769.50 360.00 L 770.50 355.00 L 771.50 350.00 L 772.50 345.00 L 773.50 340.00 L 773.50 334.00 L 773.50 328.00 L 773.50 322.00 L 773.50 316.00 L 772.50 311.00 L 771.50 306.00 L 770.50 301.00 L 768.50 297.00 L 767.00 292.50 L 765.00 288.50 L 763.00 284.50 L 760.50 281.00 L 758.00 277.50 L 755.00 274.50 L 752.00 271.50 L 749.00 268.50 L 745.50 266.00 L 742.00 263.50 L 738.00 261.50 L 734.00 259.50 L 730.00 257.50 L 726.00 255.50 L 721.00 254.50 L 717.00 252.50 L 712.00 251.50 L 707.00 250.50 L 702.00 249.50 L 697.00 248.50 L 692.00 247.50 L 686.00 247.50 L 681.00 246.50 L 675.00 246.50 L 670.00 245.50 L 664.00 245.50 L 658.00 245.50 L 652.00 245.50 L 646.00 245.50 L 640.00 245.50 L 634.00 245.50 L 628.00 245.50 L 623.00 246.50 L 617.00 246.50 L 612.00 247.50 L 606.00 247.50 L 601.00 248.50 L 595.00 248.50 L 590.00 249.50 L 585.00 250.50 L 580.00 251.50 L 575.00 252.50 L 570.00 253.50 L 565.00 254.50 L 560.00 255.50 L 555.50 257.00 L 551.00 258.50 L 547.00 260.50 L 542.50 262.00 L 538.00 263.50 L 534.00 265.50 L 530.50 268.00 L 526.50 270.00 L 523.00 272.50 L 519.50 275.00 L 516.00 277.50 L 513.00 280.50 L 510.00 283.50 L 507.00 286.50 L 504.50 290.00 L 501.50 293.00 L 499.50 297.00 L 497.00 300.50 L 494.50 304.00 L 492.50 308.00 L 490.50 312.00 L 488.50 316.00 L 487.00 320.50 L 485.50 325.00 L 483.50 329.00 L 482.00 333.50 L 480.50 338.00 L 479.00 342.50 L 477.50 347.00 L 476.50 352.00 L 474.50 356.00 L 473.50 361.00 L 472.00 365.50 L 470.50 370.00 L 469.50 375.00 L 468.50 380.00 L 467.00 384.50 L 465.50 389.00 L 464.50 394.00 L 463.50 399.00 L 462.50 404.00 L 461.00 408.50 L 459.50 413.00 L 458.50 418.00 L 457.50 423.00 L 456.00 427.50 L 454.50 432.00 L 453.50 437.00 L 457.00 439.50 L 463.00 439.50 L 469.00 439.50 L 475.00 439.50 L 481.00 439.50 L 487.00 439.50 L 493.00 439.50 L 499.00 439.50 L 505.00 439.50 L 511.00 439.50 L 517.00 439.50 L 523.00 439.50 L 529.00 439.50 L 535.00 439.50 L 541.00 439.50 L 547.00 439.50 L 553.00 439.50 L 559.00 439.50 L 565.00 439.50 L 571.00 439.50 L 577.00 439.50 L 580.00 436.50 L 581.50 432.00 L 582.50 427.00 L 583.50 422.00 L 585.00 417.50 L 586.50 413.00 L 588.50 410.00 L 592.00 412.50 L 595.50 415.00 L 599.00 417.50 L 603.00 419.50 L 606.50 422.00 L 610.00 424.50 L 614.00 426.50 L 617.50 429.00 L 621.00 431.50 L 624.50 434.00 L 628.00 436.50 L 632.00 438.50 L 635.50 441.00 L 639.00 443.50 L 643.00 445.50 L 646.50 448.00 L 650.00 450.50 L 653.50 453.00 L 657.00 455.50 L 661.00 457.50 L 664.50 460.00 L 668.00 462.50 L 672.00 464.50 L 675.50 467.00 L 679.00 469.50 L 682.50 472.00 L 679.50 475.00 L 676.00 477.50 L 672.00 479.50 L 668.00 481.50 L 664.50 484.00 L 661.00 486.50 L 657.00 488.50 L 653.00 490.50 L 649.50 493.00 L 645.50 495.00 L 642.00 497.50 L 638.00 499.50 L 634.50 502.00 L 630.50 504.00 L 627.00 506.50 L 623.00 508.50 L 619.00 510.50 L 615.50 513.00 L 612.00 515.50 L 608.00 517.50 L 604.00 519.50 L 600.50 522.00 L 597.00 524.50 L 593.00 526.50 L 589.00 528.50 L 585.50 531.00 L 582.00 533.50 L 578.00 535.50 L 574.00 537.50 L 570.50 540.00 L 566.50 542.00 L 563.00 544.50 L 559.00 546.50 L 555.50 549.00 L 552.50 549.00 L 553.50 544.00 L 554.50 539.00 L 555.50 534.00 L 557.00 529.50 L 558.50 525.00 L 559.50 520.00 L 560.50 515.00 L 560.00 511.50 L 554.00 511.50 L 548.00 511.50 L 542.00 511.50 L 536.00 511.50 L 530.00 511.50 L 524.00 511.50 L 518.50 511.00 L 513.00 510.50 L 507.00 510.50 L 501.00 510.50 L 495.00 510.50 L 489.00 510.50 L 483.00 510.50 L 477.00 510.50 L 471.00 510.50 L 465.00 510.50 L 459.00 510.50 L 453.00 510.50 L 447.00 510.50 L 441.00 510.50 L 435.00 510.50 L 433.00 514.50 L 432.00 519.50 L 430.50 524.00 L 429.50 529.00 L 428.50 534.00 L 427.00 538.50 L 425.50 543.00 L 424.50 548.00 L 423.50 553.00 L 422.50 558.00 L 421.00 562.50 L 420.00 567.50 L 418.50 572.00 L 417.50 577.00 L 416.50 582.00 L 415.00 586.50 L 414.00 591.50 L 412.50 596.00 L 411.50 601.00 L 410.50 606.00 L 409.00 610.50 L 407.50 615.00 L 406.50 620.00 L 405.50 625.00 L 404.50 630.00 L 403.00 634.50 L 401.50 639.00 L 400.50 644.00 L 399.50 649.00 L 398.50 654.00 L 396.50 658.00 L 395.50 663.00 L 394.50 668.00 L 393.50 673.00 L 391.50 677.00 L 390.50 682.00 L 389.50 687.00 L 388.50 692.00 L 386.50 696.00 L 385.50 701.00 L 384.50 706.00 L 382.50 710.00 L 381.50 715.00 L 380.50 720.00 L 378.50 724.00 L 377.50 729.00 L 375.50 733.00 L 374.50 738.00 L 372.50 742.00 L 371.50 747.00 L 369.50 751.00 L 368.00 755.50 L 366.50 760.00 L 364.50 764.00 L 363.50 769.00 L 361.50 773.00 L 359.50 777.00 L 358.00 781.50 L 356.00 785.50 L 354.50 790.00 L 352.50 794.00 L 350.50 798.00 L 348.00 801.50 L 346.00 805.50 L 343.50 809.00 L 341.50 813.00 L 339.00 816.50 L 336.50 820.00 L 334.00 823.50 L 331.00 826.50 L 328.50 830.00 L 325.50 833.00 L 322.50 836.00 L 319.50 839.00 L 316.50 842.00 L 313.00 844.50 L 310.00 847.50 L 306.50 850.00 L 303.00 852.50 L 299.00 854.50 L 295.50 857.00 L 292.00 859.50 L 288.00 861.50 L 284.00 863.50 L 280.00 865.50 L 275.50 867.00 L 271.00 868.50 L 267.00 870.50 L 262.00 871.50 L 257.00 872.50 L 252.50 874.00 L 247.50 875.00 L 242.00 875.50 L 237.00 876.50 L 232.00 877.50 L 226.00 877.50 L 220.00 877.50 Z" fill="black" stroke="none"/>
</svg>